<svg xmlns="http://www.w3.org/2000/svg" width="1200" height="630" viewBox="0 0 1200 630">
  <defs>
    <linearGradient id="background" x1="0" y1="0" x2="1" y2="1">
      <stop offset="0" stop-color="#f7fbff" />
      <stop offset="1" stop-color="#fff9e8" />
    </linearGradient>
    <filter id="shadow" x="-20%" y="-20%" width="140%" height="140%">
      <feDropShadow dx="0" dy="18" stdDeviation="24" flood-color="#164a9d" flood-opacity="0.14" />
    </filter>
  </defs>

  <rect width="1200" height="630" fill="url(#background)" />
  <circle cx="1088" cy="74" r="146" fill="#ffd85a" opacity="0.9" />
  <circle cx="111" cy="574" r="178" fill="#bcebdc" opacity="0.72" />
  <path d="M905 462c82-70 183-68 272 8v160H873c-17-61-7-117 32-168Z" fill="#dce9ff" />

  <g transform="translate(72 66)">
    <rect width="1056" height="498" rx="42" fill="#ffffff" filter="url(#shadow)" />
    <rect x="0" y="0" width="16" height="498" rx="8" fill="#1549a3" />

    <g transform="translate(68 58)">
      <rect width="232" height="46" rx="23" fill="#eaf1ff" />
      <text x="116" y="30" text-anchor="middle" fill="#1549a3" font-family="Arial, 'PingFang TC', 'Noto Sans TC', sans-serif" font-size="20" font-weight="700" letter-spacing="2">青年 × 專長 × 教育平權</text>
    </g>

    <text x="68" y="190" fill="#101f3d" font-family="Arial, 'PingFang TC', 'Noto Sans TC', sans-serif" font-size="62" font-weight="800">教育平權</text>
    <text x="68" y="268" fill="#1549a3" font-family="Arial, 'PingFang TC', 'Noto Sans TC', sans-serif" font-size="62" font-weight="800">青年專長媒合平台</text>
    <text x="70" y="326" fill="#53627a" font-family="Arial, 'PingFang TC', 'Noto Sans TC', sans-serif" font-size="26">不一定要當老師，也能用自己的專長參與教育平權。</text>

    <g transform="translate(68 374)">
      <rect width="148" height="56" rx="18" fill="#fff2b8" />
      <text x="74" y="36" text-anchor="middle" fill="#7d5b00" font-family="Arial, 'PingFang TC', sans-serif" font-size="22" font-weight="700">課輔陪伴</text>
      <rect x="164" width="126" height="56" rx="18" fill="#ffe7df" />
      <text x="227" y="36" text-anchor="middle" fill="#9a4938" font-family="Arial, 'PingFang TC', sans-serif" font-size="22" font-weight="700">視覺設計</text>
      <rect x="306" width="126" height="56" rx="18" fill="#dff5ed" />
      <text x="369" y="36" text-anchor="middle" fill="#126c5b" font-family="Arial, 'PingFang TC', sans-serif" font-size="22" font-weight="700">影音剪輯</text>
      <rect x="448" width="126" height="56" rx="18" fill="#eaf1ff" />
      <text x="511" y="36" text-anchor="middle" fill="#1549a3" font-family="Arial, 'PingFang TC', sans-serif" font-size="22" font-weight="700">網站協助</text>
    </g>

    <g transform="translate(806 80)">
      <circle cx="92" cy="92" r="92" fill="#1549a3" />
      <circle cx="92" cy="92" r="70" fill="#ffffff" opacity="0.12" />
      <path d="M55 97 80 122 132 63" fill="none" stroke="#ffd85a" stroke-width="15" stroke-linecap="round" stroke-linejoin="round" />
      <text x="92" y="224" text-anchor="middle" fill="#1549a3" font-family="Arial, 'PingFang TC', sans-serif" font-size="24" font-weight="700">把關心變成行動</text>
    </g>
  </g>
</svg>
