<svg xmlns="http://www.w3.org/2000/svg" width="1200" height="630" viewBox="0 0 1200 630">
  <defs>
    <linearGradient id="bg" x1="0" y1="0" x2="1" y2="1">
      <stop offset="0" stop-color="#fff7fb"/>
      <stop offset="0.52" stop-color="#f4f8ff"/>
      <stop offset="1" stop-color="#fff8df"/>
    </linearGradient>
    <linearGradient id="pinkBlue" x1="0" y1="0" x2="1" y2="1">
      <stop offset="0" stop-color="#ff7eb3"/>
      <stop offset="1" stop-color="#1549a3"/>
    </linearGradient>
    <filter id="softShadow" x="-25%" y="-25%" width="150%" height="150%">
      <feDropShadow dx="0" dy="22" stdDeviation="26" flood-color="#1549a3" flood-opacity="0.16"/>
    </filter>
    <filter id="cardShadow" x="-25%" y="-25%" width="150%" height="150%">
      <feDropShadow dx="0" dy="12" stdDeviation="14" flood-color="#173b78" flood-opacity="0.13"/>
    </filter>
    <pattern id="dots" width="26" height="26" patternUnits="userSpaceOnUse">
      <circle cx="3" cy="3" r="2.2" fill="#1549a3" opacity="0.16"/>
    </pattern>
    <style>
      .font { font-family: Arial, "PingFang TC", "Noto Sans TC", "Microsoft JhengHei", sans-serif; }
      .title { fill: #101f3d; font-size: 67px; font-weight: 900; letter-spacing: -1px; }
      .subtitle { fill: #1549a3; font-size: 36px; font-weight: 850; }
      .body { fill: #53627a; font-size: 24px; font-weight: 500; }
      .badge { font-size: 19px; font-weight: 800; }
      .small { font-size: 17px; font-weight: 800; }
    </style>
  </defs>

  <rect width="1200" height="630" fill="url(#bg)"/>
  <path d="M948-24c110 10 191 68 226 156 32 80 14 169-42 231-68 75-184 91-285 43-83-39-128-117-120-202C736 91 817-36 948-24Z" fill="#ff7eb3" opacity="0.25"/>
  <circle cx="1120" cy="95" r="155" fill="#ffd85a" opacity="0.72"/>
  <path d="M-12 500c83-80 197-100 296-50 86 43 130 133 108 220H0Z" fill="#bcebdc" opacity="0.78"/>
  <path d="M883 475c90-62 204-49 317 39v116H846c-14-58-2-110 37-155Z" fill="#dce9ff" opacity="0.92"/>
  <rect x="34" y="34" width="1132" height="562" rx="42" fill="url(#dots)" opacity="0.55"/>

  <g filter="url(#softShadow)">
    <rect x="70" y="58" width="1060" height="514" rx="44" fill="#ffffff" opacity="0.96"/>
  </g>
  <rect x="70" y="58" width="1060" height="514" rx="44" fill="#ffffff" opacity="0.92"/>
  <path d="M70 102c0-24 20-44 44-44h250L70 572Z" fill="#1549a3" opacity="0.08"/>
  <rect x="70" y="58" width="16" height="514" rx="8" fill="url(#pinkBlue)"/>

  <g class="font">
    <g transform="translate(132 118)">
      <rect width="276" height="48" rx="24" fill="#ffeaf3"/>
      <text x="138" y="31" text-anchor="middle" fill="#c72f75" class="badge" letter-spacing="2">青年專長 × 教育平權</text>
    </g>

    <text x="132" y="240" class="title">起跑線上的共鳴</text>
    <text x="134" y="302" class="subtitle">教育平權青年專長媒合平台</text>
    <text x="136" y="360" class="body">用自己的能力，參與真實教育行動。</text>

    <g transform="translate(132 410)">
      <rect width="148" height="56" rx="18" fill="#fff2b8"/>
      <text x="74" y="36" text-anchor="middle" fill="#7d5b00" class="badge">課輔陪伴</text>
      <rect x="166" width="130" height="56" rx="18" fill="#ffe7df"/>
      <text x="231" y="36" text-anchor="middle" fill="#9a4938" class="badge">視覺設計</text>
      <rect x="314" width="130" height="56" rx="18" fill="#dff5ed"/>
      <text x="379" y="36" text-anchor="middle" fill="#126c5b" class="badge">影音剪輯</text>
      <rect x="462" width="130" height="56" rx="18" fill="#eaf1ff"/>
      <text x="527" y="36" text-anchor="middle" fill="#1549a3" class="badge">網站協助</text>
    </g>

    <g transform="translate(650 115)">
      <path d="M55 330c61-87 151-132 270-136" fill="none" stroke="#dbe6f8" stroke-width="18" stroke-linecap="round"/>
      <path d="M78 306c49-57 127-88 229-95" fill="none" stroke="#ff7eb3" stroke-width="6" stroke-linecap="round" stroke-dasharray="12 16"/>

      <g filter="url(#cardShadow)">
        <rect x="0" y="188" width="248" height="132" rx="28" fill="#1549a3"/>
      </g>
      <rect x="22" y="211" width="86" height="86" rx="28" fill="#ffffff" opacity="0.16"/>
      <text x="126" y="246" text-anchor="middle" fill="#ffffff" font-size="23" font-weight="850">青年專長</text>
      <text x="126" y="282" text-anchor="middle" fill="#ffd85a" font-size="32" font-weight="900">MATCH</text>

      <g filter="url(#cardShadow)">
        <rect x="286" y="42" width="194" height="118" rx="26" fill="#fff2b8"/>
      </g>
      <text x="383" y="91" text-anchor="middle" fill="#7d5b00" class="small">課輔陪伴</text>
      <text x="383" y="123" text-anchor="middle" fill="#7d5b00" font-size="15" font-weight="700">陪孩子走一段路</text>

      <g filter="url(#cardShadow)">
        <rect x="330" y="192" width="184" height="108" rx="25" fill="#ffe7df"/>
      </g>
      <text x="422" y="238" text-anchor="middle" fill="#9a4938" class="small">社群倡議</text>
      <text x="422" y="269" text-anchor="middle" fill="#9a4938" font-size="15" font-weight="700">讓議題被看見</text>

      <g filter="url(#cardShadow)">
        <rect x="262" y="334" width="204" height="112" rx="25" fill="#eaf1ff"/>
      </g>
      <text x="364" y="381" text-anchor="middle" fill="#1549a3" class="small">網站／資料</text>
      <text x="364" y="413" text-anchor="middle" fill="#1549a3" font-size="15" font-weight="700">把需求整理清楚</text>

      <g transform="translate(178 18)">
        <circle cx="72" cy="72" r="72" fill="#1549a3"/>
        <circle cx="72" cy="72" r="53" fill="#ffffff" opacity="0.13"/>
        <path d="M43 75 64 96 104 50" fill="none" stroke="#ffd85a" stroke-width="12" stroke-linecap="round" stroke-linejoin="round"/>
      </g>
      <text x="250" y="180" text-anchor="middle" fill="#1549a3" font-size="23" font-weight="900">把關心變成行動</text>
    </g>
  </g>

  <g class="font" transform="translate(101 515)">
    <line x1="0" y1="0" x2="958" y2="0" stroke="#d7e3f4" stroke-width="2"/>
    <text x="30" y="38" fill="#1549a3" font-size="18" font-weight="800">Impact Star 2026 MVP</text>
    <text x="258" y="38" fill="#7b8799" font-size="18" font-weight="700">高中生、大學生、教育現場的專長媒合入口</text>
  </g>
</svg>
